<svg height="313pt" viewBox="-9.75 14 318.65 298.3" width="313pt" xmlns="http://www.w3.org/2000/svg"><path d="m151.9 14.35c-.2.2-4 .65-8.4.95-92.95 6.75-153.25 105.6-118.75 194.55l2.9 7.35 5.7-11.55c13.75-27.55 38-61.25 66-91.55 7.95-8.6 8.65-9.7 8.65-13.5 0-7.9 4.6-12.55 19.75-20.05 7.35-3.6 9.65-4.35 11-3.5 1.4.85 4.15-.3 14.25-6.1 15.1-8.65 47.4-24.95 62.5-31.45 6.05-2.6 11.35-5.05 11.8-5.45 3.15-2.9-37-16.6-54.3-18.5-7.9-.85-20.65-1.55-21.1-1.2zm27.1 13.2c11.2 1.85 21.25 4.65 21.7 6.1.25.6-8.4 5.65-19.4 11.35-10.9 5.65-24.25 12.7-29.65 15.8-6.2 3.45-11.75 5.85-14.9 6.35-15.2 2.4-32.2 15.6-37.25 28.85-2.25 6-4.35 9.2-10.5 16-22.55 25-40.25 48.6-53.95 71.75-2.35 4-4.6 7.25-5.05 7.25-5.6 0-8.25-40.1-4.05-60.85 14.25-69.65 81.1-114.45 153.05-102.6zm48.45 28.3c-28.95 18.3-37.45 24.3-60.25 42.85-5.55 4.55 6.3 25.25 32.4 56.5 7.5 8.95 15 18.3 16.7 20.8 4.3 6.25 45.15 56.85 52.75 65.4 1.95 2.1 17.05-25.6 21.95-40.2 17.9-53.55-.55-119.6-42.85-153.05l-3.75-3zm24.6 9.3c14.55 14.75 25.5 33.25 31.6 53.35 4.15 13.65 4.75 56.9 1 71.5-4.25 16.7-13.65 35.95-16.9 34.75-1.8-.7-27.95-32.4-42.3-51.25-5.45-7.15-15.6-19.85-22.55-28.15-17.65-21.05-25.85-33.8-25.9-40 0-3.65 18.55-17.65 47.55-35.85 19.75-12.45 19.6-12.4 27.5-4.35zm-140.6 77.5c-18.7 14.7-46.5 43.7-78.1 81.4-2.1 2.5 9.65 19.05 23.1 32.5 52.8 52.85 135.35 55.75 193.35 6.7l5.25-4.45-8.35-8.65c-4.6-4.75-15.5-16.3-24.2-25.65-47.2-50.65-81.25-84.25-85.25-84.15-2.65.05-5.4-.85-9.05-3.1-2.85-1.8-5.35-3.25-5.5-3.25s-5.2 3.9-11.25 8.65zm19.95 7.05 8.1 2.75 28.55 29c33.2 33.75 71.95 74.9 71.95 76.4 0 1.6-11.05 9.7-19.2 14.1-44.15 23.75-97.45 21.2-140.25-6.8-12.45-8.1-35.05-32.1-35.8-37.95-.85-6.55 70.75-80.2 77.95-80.2.3 0 4.2 1.2 8.7 2.7z" fill="#8a629e"/></svg>